<svg width="28" height="27" viewBox="0 0 28 27" fill="none" xmlns="http://www.w3.org/2000/svg">
  <path d="M6.20993 12.7783C6.20991 12.6285 6.23946 12.48 6.2969 12.3416C6.35433 12.2032 6.43852 12.0775 6.54462 11.9718C6.65072 11.866 6.77665 11.7823 6.91516 11.7254C7.05368 11.6686 7.20205 11.6397 7.35177 11.6404L9.24481 11.6466C9.54665 11.6466 9.83613 11.7666 10.0496 11.9803C10.263 12.1939 10.3829 12.4837 10.3829 12.7859V19.9522C10.5962 19.8889 10.8697 19.8215 11.1693 19.7511C11.3773 19.7021 11.5627 19.5842 11.6954 19.4165C11.8281 19.2488 11.9003 19.0411 11.9004 18.8272V9.93803C11.9004 9.63582 12.0203 9.34598 12.2337 9.13226C12.4471 8.91854 12.7366 8.79845 13.0385 8.7984H14.9354C15.2372 8.79847 15.5267 8.91857 15.7401 9.13229C15.9536 9.346 16.0734 9.63583 16.0734 9.93803V18.1883C16.0734 18.1883 16.5481 17.9959 17.0109 17.8004C17.1827 17.7276 17.3293 17.6058 17.4325 17.4502C17.5356 17.2945 17.5907 17.1119 17.5908 16.9251V7.08914C17.5908 6.93953 17.6203 6.79138 17.6774 6.65315C17.7346 6.51493 17.8184 6.38932 17.9241 6.28353C18.0298 6.17773 18.1552 6.0938 18.2933 6.03654C18.4313 5.97927 18.5793 5.94979 18.7288 5.94978H20.6256C20.9275 5.94978 21.217 6.06982 21.4304 6.28348C21.6439 6.49715 21.7638 6.78695 21.7638 7.08914V15.1886C23.4083 13.9955 25.0749 12.5604 26.3975 10.8348C26.5894 10.5844 26.7164 10.2902 26.7671 9.97869C26.8178 9.66715 26.7908 9.34787 26.6883 9.04936C25.7934 6.43846 24.1148 4.16801 21.882 2.54844C19.6492 0.928871 16.9713 0.0392504 14.2143 0.00121657C6.77984 -0.0987639 0.635687 5.97674 0.636417 13.4203C0.629117 15.7758 1.24319 18.0913 2.41654 20.1329C2.57835 20.4122 2.81641 20.6394 3.10274 20.7879C3.38907 20.9364 3.71179 21 4.03298 20.9712C4.39183 20.9396 4.8386 20.8949 5.36972 20.8325C5.60089 20.8062 5.81431 20.6956 5.96933 20.522C6.12436 20.3483 6.21015 20.1236 6.21039 19.8907V12.7783" fill="white" />
  <path d="M6.16867 24.2713C8.16806 25.7274 10.5308 26.6014 12.9956 26.7967C15.4604 26.9919 17.9311 26.5007 20.1343 25.3775C22.3376 24.2543 24.1875 22.5428 25.4794 20.4323C26.7713 18.3219 27.4549 15.8948 27.4545 13.4196C27.4545 13.1106 27.4402 12.8051 27.4196 12.5012C22.5227 19.8124 13.4811 23.2308 6.16858 24.2716" fill="white" />
</svg>
