<svg width="27" height="27" viewBox="0 0 27 27" fill="none" xmlns="http://www.w3.org/2000/svg">
  <path d="M13.4091 0C6.00459 0 0 6.00914 0 13.4193C0 20.8294 6.00459 26.8385 13.4091 26.8385C20.8136 26.8385 26.8182 20.8294 26.8182 13.4193C26.8182 6.00914 20.8163 0 13.4091 0ZM6.61605 13.8701L6.67237 13.7789L10.1614 8.31726C10.2124 8.23942 10.333 8.24747 10.3706 8.33336C10.9525 9.64039 11.4567 11.2668 11.2207 12.2786C11.1215 12.6946 10.8453 13.2582 10.5342 13.7789C10.494 13.854 10.451 13.9292 10.4028 14.0017C10.3813 14.0339 10.3438 14.0526 10.3035 14.0526H6.71796C6.62141 14.0526 6.56509 13.948 6.61605 13.8701ZM22.1626 15.7488C22.1626 15.7998 22.1331 15.8428 22.0901 15.8616C21.8193 15.977 20.8941 16.4037 20.5106 16.9378C19.529 18.3039 18.7808 20.2577 17.1046 20.2577H10.1158C7.63782 20.2577 5.63182 18.2421 5.63182 15.7542V15.6737C5.63182 15.6093 5.68546 15.5556 5.7525 15.5556H9.6465C9.72428 15.5556 9.78059 15.6254 9.77523 15.7032C9.74573 15.9555 9.794 16.2158 9.91468 16.452C10.1453 16.9217 10.6254 17.2142 11.143 17.2142H13.0712V15.7086H11.1644C11.0679 15.7086 11.0089 15.5959 11.0652 15.5153C11.0866 15.4831 11.1081 15.4509 11.1349 15.4134C11.3146 15.1557 11.572 14.7585 11.8295 14.3049C12.0038 13.999 12.1728 13.6715 12.3095 13.3441C12.3364 13.2851 12.3578 13.2233 12.382 13.1643C12.4195 13.0596 12.457 12.9603 12.4839 12.8637C12.5107 12.7805 12.5348 12.6946 12.5563 12.6141C12.6206 12.335 12.6475 12.0398 12.6475 11.7338C12.6475 11.613 12.6421 11.4869 12.6314 11.3688C12.626 11.2373 12.6099 11.1058 12.5938 10.9743C12.5831 10.8589 12.5616 10.7435 12.5402 10.6254C12.5107 10.4509 12.4731 10.2765 12.4302 10.102L12.4141 10.0349C12.382 9.91415 12.3525 9.80142 12.3149 9.68065C12.205 9.30491 12.0816 8.93722 11.9475 8.59369C11.8992 8.45681 11.8456 8.32531 11.7893 8.19648C11.7088 7.99788 11.6257 7.81806 11.5506 7.64898C11.5104 7.57114 11.4782 7.50136 11.446 7.4289C11.4085 7.34838 11.3709 7.26787 11.3307 7.19004C11.3039 7.13099 11.2717 7.07463 11.2502 7.02095L11.0142 6.58617C10.982 6.52713 11.0357 6.45466 11.1 6.47345L12.575 6.87334H12.5804H12.5858L12.7789 6.9297L12.9934 6.98875L13.0712 7.01022V6.13528C13.0712 5.71124 13.4091 5.3677 13.8301 5.3677C14.0393 5.3677 14.2297 5.45359 14.3638 5.59315C14.5006 5.73271 14.5864 5.92326 14.5864 6.13528V7.43695L14.7446 7.47989C14.7554 7.48526 14.7688 7.49063 14.7795 7.49868C14.817 7.52552 14.8734 7.56846 14.9431 7.62214C14.9994 7.66508 15.0584 7.71876 15.1281 7.77512C15.2703 7.89052 15.4419 8.03813 15.627 8.20722C15.6752 8.25016 15.7235 8.2931 15.7691 8.33873C16.0078 8.56148 16.276 8.82182 16.5334 9.11167C16.6058 9.19487 16.6756 9.27539 16.748 9.36396C16.8177 9.45252 16.8955 9.53841 16.9598 9.62429C17.0483 9.73969 17.1395 9.86047 17.2226 9.98661C17.2602 10.0457 17.3058 10.1074 17.3406 10.1664C17.4479 10.3248 17.5391 10.4885 17.6276 10.6522C17.6651 10.7274 17.7027 10.8106 17.7349 10.8911C17.8341 11.1111 17.9119 11.3339 17.9601 11.5593C17.9762 11.6077 17.987 11.6586 17.9923 11.707V11.7177C18.0084 11.7821 18.0138 11.8519 18.0191 11.9243C18.0406 12.1525 18.0299 12.3833 17.9816 12.6141C17.9601 12.7107 17.9333 12.802 17.9011 12.9013C17.8663 12.9952 17.8341 13.0918 17.7912 13.1858C17.7081 13.3763 17.6115 13.5696 17.4962 13.7467C17.4586 13.8138 17.4131 13.8836 17.3701 13.9507C17.3219 14.0204 17.2709 14.0875 17.228 14.1519C17.1663 14.2351 17.102 14.321 17.0349 14.3989C16.9759 14.4794 16.9169 14.5599 16.8499 14.6324C16.7587 14.7424 16.6702 14.8444 16.5763 14.9437C16.5227 15.0081 16.4637 15.0752 16.402 15.1342C16.343 15.2013 16.2813 15.2604 16.2277 15.3141C16.1338 15.408 16.0587 15.4778 15.9944 15.5395L15.8415 15.6764C15.8201 15.6978 15.7906 15.7086 15.7611 15.7086H14.5864V17.2142H16.0641C16.394 17.2142 16.7077 17.0988 16.9625 16.8814C17.0483 16.8063 17.4265 16.4788 17.8743 15.985C17.8904 15.9662 17.9092 15.9555 17.9306 15.9501L22.0097 14.7692C22.0875 14.7478 22.1626 14.8041 22.1626 14.8846V15.7488Z" fill="white" />
</svg>
