<svg width="28" height="24" viewBox="0 0 28 24" fill="none" xmlns="http://www.w3.org/2000/svg">
  <path d="M24.8909 6.22761C24.9072 6.47026 24.9072 6.71291 24.9072 6.95779C24.9072 14.4195 19.3725 23.0252 9.2521 23.0252V23.0208C6.2625 23.0252 3.335 22.1463 0.818237 20.4891C1.25295 20.5428 1.68984 20.5697 2.12782 20.5708C4.60536 20.573 7.01208 19.7198 8.9612 18.1487C6.60678 18.1029 4.54217 16.5274 3.82092 14.2272C4.64567 14.3905 5.49549 14.3569 6.30499 14.1299C3.73811 13.5977 1.8914 11.283 1.8914 8.59484C1.8914 8.57024 1.8914 8.54676 1.8914 8.52327C2.65623 8.96049 3.51259 9.20314 4.38855 9.22998C1.97093 7.57168 1.22571 4.27075 2.68565 1.68995C5.47914 5.21787 9.60075 7.36258 14.0252 7.58958C13.5818 5.62825 14.1876 3.573 15.617 2.19426C17.8331 0.0562549 21.3184 0.165839 23.4015 2.43914C24.6337 2.18978 25.8148 1.72573 26.8956 1.06823C26.4848 2.3754 25.6252 3.48578 24.4769 4.19136C25.5675 4.05942 26.633 3.75974 27.6364 3.30239C26.8977 4.43848 25.9673 5.42809 24.8909 6.22761Z" fill="white" />
</svg>
